<svg width="175" height="38" viewBox="0 0 175 38" fill="none" xmlns="http://www.w3.org/2000/svg">
<g clip-path="url(#clip0)">
<path fill-rule="evenodd" clip-rule="evenodd" d="M89.0741 6.61928C90.679 7.53863 91.4815 9.07089 91.8519 10.8483L98.7037 1.77734L89.0741 6.61928Z" fill="white"/>
<path d="M89.7531 10.9097C88.0247 12.5032 86.1111 14.2193 84.0123 15.9968C85.9259 19.7968 87.3457 24.5161 87.7778 30.2774C90.1234 27.0903 91.5432 23.229 91.5432 19C91.5432 16.1193 90.9259 13.3613 89.7531 10.9097Z" fill="white"/>
<path d="M77.6543 7.04839C79.321 8.76452 81.0494 10.9097 82.5926 13.4839C84.6913 11.7677 86.6049 10.1129 88.395 8.58064C85 3.43226 79.0741 0 72.4074 0C71.2346 0 70.1234 0.122581 69.0123 0.306452C70.9259 1.40968 74.3827 3.61613 77.6543 7.04839Z" fill="white"/>
<path d="M53.2716 19C53.2716 24.5161 55.6173 29.4806 59.3827 32.9129C60 16.6097 62.6543 6.74193 65.1235 1.40967C58.2099 4.22902 53.2716 11.0322 53.2716 19Z" fill="white"/>
<path d="M60.5555 33.955C63.8271 36.5292 67.9012 38.0002 72.4074 38.0002C77.5926 38.0002 82.2222 35.9776 85.679 32.6679C85.1852 27.2743 83.5802 22.3098 81.4815 18.1421C75.3086 23.3518 68.0247 29.0518 60.5555 33.955Z" fill="white"/>
<path d="M62.6543 28.8066C68.7037 24.5775 74.7531 19.8582 80.1235 15.5066C78.642 12.9937 76.9753 10.9098 75.3087 9.37755C72.4074 6.61948 69.4445 4.53561 67.5309 3.37109C63.642 11.584 62.3457 21.1453 62.6543 28.8066Z" fill="white"/>
<path d="M156.42 27.0291H162.284L162.346 24.1485L164.877 22.0646L167.901 27.0291H175L169.321 18.6936L174.568 14.2807H166.667L162.407 18.2646L162.531 10.4194H156.667L156.42 27.0291Z" fill="white"/>
<path d="M154.136 21.3905H147.901C147.778 21.8196 147.593 22.2486 147.284 22.555C146.975 22.8615 146.605 23.1679 146.173 23.3518C145.741 23.5357 145.247 23.597 144.691 23.597C144.012 23.597 143.457 23.4744 143.025 23.2292C142.531 22.9841 142.16 22.6163 141.914 22.1873C141.667 21.7583 141.543 21.2067 141.543 20.5938C141.543 19.9808 141.728 19.4292 141.975 18.9389C142.222 18.5099 142.654 18.1421 143.148 17.897C143.642 17.6518 144.259 17.5292 144.938 17.5292C145.679 17.5292 146.235 17.6518 146.728 17.9583C147.222 18.2647 147.531 18.6938 147.778 19.3067H154.074C153.827 17.4679 152.963 16.1196 151.42 15.2002C149.877 14.2808 147.716 13.7905 144.877 13.7905C142.839 13.7905 141.111 14.097 139.691 14.5873C138.272 15.1389 137.222 15.9357 136.481 16.9163C135.741 17.9583 135.37 19.1228 135.37 20.5325C135.37 21.9421 135.679 23.1679 136.42 24.2099C137.099 25.2518 138.148 25.9873 139.568 26.5389C140.988 27.0905 142.654 27.3357 144.691 27.3357C147.593 27.3357 149.877 26.8454 151.42 25.8034C153.025 24.9454 153.889 23.4131 154.136 21.3905Z" fill="white"/>
<path d="M126.975 27.0291H132.84L133.025 14.2808H127.161L126.975 27.0291Z" fill="white"/>
<path d="M127.161 13.2386H133.025L133.086 9.99023H127.222L127.161 13.2386Z" fill="white"/>
<path d="M117.346 27.0291H123.395L123.58 10.4194H117.593L117.346 27.0291Z" fill="white"/>
<path d="M114.938 21.3905H108.704C108.58 21.8196 108.395 22.2486 108.086 22.555C107.778 22.8615 107.407 23.1679 106.975 23.3518C106.543 23.5357 106.049 23.597 105.494 23.597C104.815 23.597 104.259 23.4744 103.827 23.2292C103.333 22.9841 102.963 22.6163 102.716 22.1873C102.469 21.7583 102.346 21.2067 102.346 20.5938C102.346 19.9808 102.531 19.4292 102.778 18.9389C103.025 18.5099 103.457 18.1421 103.951 17.897C104.444 17.6518 105.062 17.5292 105.741 17.5292C106.481 17.5292 107.037 17.6518 107.531 17.9583C108.025 18.2647 108.333 18.6938 108.58 19.3067H114.876C114.63 17.4679 113.765 16.1196 112.222 15.2002C110.679 14.2808 108.518 13.7905 105.679 13.7905C103.642 13.7905 101.914 14.097 100.494 14.5873C99.074 15.1389 98.0246 15.9357 97.2839 16.9163C96.5432 17.9583 96.1728 19.1228 96.1728 20.5325C96.1728 21.9421 96.4814 23.1679 97.2222 24.2099C97.9012 25.2518 98.9506 25.9873 100.37 26.5389C101.728 27.0905 103.457 27.3357 105.494 27.3357C108.395 27.3357 110.679 26.8454 112.222 25.8034C113.765 24.9454 114.691 23.4131 114.938 21.3905Z" fill="white"/>
<path d="M50.3087 27.1517L50.3704 23.6581H49.5062C49.1358 23.6581 48.8889 23.5968 48.7037 23.5355C48.5185 23.413 48.3951 23.2904 48.2716 23.0452C48.2099 22.8613 48.1482 22.5549 48.1482 22.1872C48.1482 21.8194 48.1482 21.4517 48.1482 20.9001L48.2099 18.2646H50.3087L50.3704 14.7097H48.2716L48.3334 10.542H42.4074L42.3457 14.7097H40.2469L40.1235 18.3259H42.2222L42.1605 23.2904C42.1605 23.7194 42.1605 24.1484 42.2222 24.5162C42.284 24.8839 42.3457 25.2517 42.4692 25.4968C42.5926 25.8033 42.7778 26.0484 43.0247 26.2936C43.2716 26.5388 43.5803 26.7226 43.9506 26.8452C44.4445 27.0291 44.9383 27.1517 45.4938 27.213C46.0494 27.2743 46.7284 27.3355 47.4074 27.3355C47.9013 27.3355 48.3951 27.3355 48.8272 27.2743C49.321 27.3355 49.8148 27.2743 50.3087 27.1517Z" fill="white"/>
<path d="M39.1975 23.2903H32.7778C32.5926 23.5967 32.2222 23.8419 31.7284 24.0257C31.2346 24.2096 30.679 24.2709 29.9383 24.2709C28.8272 24.2709 28.0247 24.087 27.4074 23.7193C26.8519 23.3515 26.5432 22.7999 26.5432 22.1257H39.2593V21.8806C39.321 19.3064 38.5185 17.3451 36.9136 15.9967C35.3087 14.6483 32.9012 13.9741 29.7531 13.9741C27.7161 13.9741 26.0494 14.2806 24.6296 14.7709C23.2099 15.3225 22.1605 16.058 21.4198 17.0999C20.679 18.1419 20.3087 19.3064 20.3087 20.7773C20.3087 22.187 20.6173 23.4128 21.358 24.4548C22.037 25.4967 23.0864 26.2322 24.5062 26.7838C25.8642 27.3354 27.5926 27.5806 29.6296 27.5806C32.3457 27.5806 34.5062 27.2128 36.1111 26.4773C37.6543 25.8032 38.7037 24.6999 39.1975 23.2903ZM26.358 19.429C26.5432 18.6935 26.9136 18.1419 27.5309 17.7741C28.1482 17.4064 29.0124 17.2225 30.0617 17.2225C31.0494 17.2225 31.7901 17.4064 32.3457 17.7741C32.9012 18.1419 33.2099 18.6935 33.3333 19.429H26.358Z" fill="white"/>
<path d="M17.963 24.3322L18.0864 14.4031H12.5309L12.4691 15.6289C11.7901 15.0773 10.9877 14.7096 10.0617 14.4644C9.19753 14.2193 8.20988 14.0967 7.09877 14.0967C5.98765 14.0967 5.06173 14.2193 4.19753 14.5257C3.33333 14.8322 2.59259 15.2612 1.97531 15.7515C1.35802 16.3031 0.864198 16.916 0.555556 17.7128C0.185185 18.5096 0 19.3064 0 20.2257C0 21.1451 0.123457 22.0031 0.432099 22.7386C0.740741 23.4741 1.23457 24.1483 1.85185 24.6999C2.46914 25.2515 3.20988 25.6805 4.07407 25.9257C4.93827 26.2322 5.92593 26.3547 6.97531 26.3547C8.02469 26.3547 8.95062 26.2322 9.81482 25.987C10.679 25.7418 11.4198 25.3741 12.1605 24.8838C12.1605 25.0064 12.1605 25.1289 12.1605 25.2515C12.1605 25.3741 12.1605 25.4967 12.1605 25.558C12.1605 26.1096 12.0988 26.5999 11.9136 26.9064C11.7284 27.2741 11.4815 27.5193 11.1111 27.7031C10.7407 27.887 10.2469 27.9483 9.69136 27.9483C9.25926 27.9483 8.95062 27.887 8.7037 27.7644C8.45679 27.6418 8.27161 27.3967 8.20988 27.1515H0.246914C0.432099 28.1322 0.864198 28.9289 1.54321 29.5418C2.22222 30.1547 3.14815 30.6451 4.32099 30.9515C5.49383 31.258 6.97531 31.3806 8.7037 31.3806C10.1852 31.3806 11.4815 31.258 12.5926 31.0741C13.7037 30.8289 14.6914 30.4612 15.4321 29.9709C16.2346 29.4806 16.8519 28.8064 17.4074 28.0096C17.5926 27.7644 17.6543 27.458 17.7778 27.0902C17.8395 26.7225 17.9012 26.3547 17.963 25.8644C17.963 25.4354 17.963 24.9451 17.963 24.3322ZM6.17284 20.3483C6.17284 19.858 6.2963 19.4289 6.54321 19.0612C6.79012 18.6935 7.16049 18.4483 7.59259 18.2031C8.02469 18.0193 8.58025 17.8967 9.19753 17.8967C9.81482 17.8967 10.3086 18.0193 10.8025 18.2031C11.2346 18.387 11.6049 18.6935 11.8519 19.0612C12.0988 19.4289 12.2222 19.858 12.2222 20.3483C12.2222 20.8386 12.0988 21.2676 11.8519 21.6354C11.6049 22.0031 11.2346 22.2483 10.8025 22.4935C10.3704 22.6773 9.81482 22.7999 9.19753 22.7999C8.58025 22.7999 8.08642 22.6773 7.59259 22.4935C7.16049 22.3096 6.79012 22.0031 6.54321 21.6354C6.2963 21.2676 6.17284 20.8386 6.17284 20.3483Z" fill="white"/>
</g>
<defs>
<clipPath id="clip0">
<rect width="175" height="38" fill="white"/>
</clipPath>
</defs>
</svg>
