<svg width="183" height="40" fill="none" xmlns="http://www.w3.org/2000/svg"><g clip-path="url(#clip0)"><path fill-rule="evenodd" clip-rule="evenodd" d="M93.146 6.968c1.678.967 2.517 2.58 2.905 4.451l7.165-9.548-10.07 5.097z" fill="#8EBA5B"/><path d="M93.856 11.484a190.054 190.054 0 0 1-6.003 5.355c2 4 3.486 8.968 3.937 15.032 2.453-3.355 3.938-7.42 3.938-11.871 0-3.032-.645-5.935-1.872-8.516zM81.204 7.42a37.197 37.197 0 0 1 5.164 6.774c2.195-1.807 4.196-3.549 6.068-5.162C88.886 3.612 82.689 0 75.717 0c-1.226 0-2.388.129-3.55.323 2.001 1.16 5.616 3.483 9.037 7.096zM55.707 20c0 5.806 2.453 11.032 6.39 14.645.646-17.161 3.422-27.548 6.003-33.161C60.87 4.452 55.707 11.613 55.707 20zm7.617 15.742C66.744 38.452 71.005 40 75.717 40c5.423 0 10.264-2.129 13.879-5.613-.517-5.677-2.195-10.903-4.39-15.29-6.455 5.484-14.072 11.484-21.882 16.645zm2.195-5.419c6.325-4.452 12.651-9.42 18.267-14-1.549-2.646-3.292-4.84-5.035-6.452-3.034-2.903-6.132-5.097-8.133-6.323-4.067 8.646-5.422 18.71-5.1 26.775z" fill="#8EBA5B"/><path d="M163.57 28.452h6.133l.064-3.033 2.647-2.193 3.163 5.226H183l-5.939-8.775 5.487-4.645h-8.262l-4.454 4.194.129-8.258h-6.132l-.259 17.484zm-2.388-5.936h-6.52c-.129.452-.322.903-.645 1.226-.323.322-.71.645-1.162.839-.452.193-.968.258-1.549.258-.71 0-1.291-.13-1.743-.387a2.735 2.735 0 0 1-1.162-1.097c-.258-.452-.387-1.032-.387-1.678 0-.645.193-1.225.452-1.741.258-.452.71-.84 1.226-1.097.516-.258 1.162-.387 1.872-.387.775 0 1.356.129 1.872.451.516.323.839.774 1.097 1.42h6.584c-.258-1.936-1.161-3.355-2.775-4.323-1.614-.968-3.873-1.484-6.843-1.484-2.13 0-3.937.323-5.422.839-1.484.58-2.582 1.42-3.356 2.451-.775 1.097-1.162 2.323-1.162 3.807s.322 2.774 1.097 3.87c.71 1.098 1.807 1.872 3.292 2.453 1.485.58 3.228.838 5.358.838 3.034 0 5.422-.516 7.036-1.613 1.678-.903 2.582-2.516 2.84-4.645zm-28.402 5.936h6.132l.194-13.42h-6.132l-.194 13.42zm.194-14.517h6.132l.064-3.419h-6.132l-.064 3.42zM122.71 28.452h6.326l.194-17.484h-6.262l-.258 17.484zm-2.517-5.936h-6.52c-.129.452-.323.903-.646 1.226-.322.322-.71.645-1.161.839-.452.193-.969.258-1.55.258-.71 0-1.291-.13-1.742-.387a2.73 2.73 0 0 1-1.162-1.097c-.259-.452-.388-1.032-.388-1.678 0-.645.194-1.225.452-1.741.258-.452.71-.84 1.227-1.097.516-.258 1.162-.387 1.872-.387.774 0 1.355.129 1.872.451.516.323.839.774 1.097 1.42h6.584c-.258-1.936-1.162-3.355-2.776-4.323-1.613-.968-3.873-1.484-6.842-1.484-2.13 0-3.938.323-5.422.839-1.485.58-2.582 1.42-3.357 2.451-.774 1.097-1.162 2.323-1.162 3.807s.323 2.774 1.098 3.87c.71 1.098 1.807 1.872 3.292 2.453 1.42.58 3.227.838 5.357.838 3.034 0 5.423-.516 7.036-1.613 1.614-.903 2.582-2.516 2.841-4.645zM52.608 28.58l.065-3.677h-.904a2.53 2.53 0 0 1-.839-.129 1.195 1.195 0 0 1-.452-.516 2.992 2.992 0 0 1-.129-.903V22l.065-2.774h2.194l.065-3.742h-2.195l.065-4.387h-6.197l-.064 4.387h-2.195l-.13 3.806h2.195l-.064 5.226c0 .452 0 .903.064 1.29.065.387.13.775.259 1.033.129.322.322.58.58.838.259.259.581.452.969.581a6.564 6.564 0 0 0 1.614.387 18.42 18.42 0 0 0 2 .13c.517 0 1.033 0 1.485-.065.517.064 1.033 0 1.55-.13zM40.99 24.516h-6.714c-.194.323-.58.58-1.097.774-.517.194-1.098.258-1.872.258-1.162 0-2.001-.193-2.647-.58-.58-.387-.903-.968-.903-1.678h13.297v-.258c.064-2.71-.775-4.774-2.453-6.193-1.678-1.42-4.196-2.13-7.488-2.13-2.13 0-3.873.323-5.357.84-1.485.58-2.582 1.354-3.357 2.451-.775 1.097-1.162 2.323-1.162 3.871 0 1.484.323 2.774 1.097 3.87.71 1.098 1.808 1.872 3.292 2.453 1.42.58 3.228.838 5.358.838 2.84 0 5.1-.387 6.778-1.161 1.614-.71 2.711-1.871 3.227-3.355zm-13.427-4.064c.194-.775.58-1.355 1.226-1.742s1.55-.581 2.647-.581c1.033 0 1.807.194 2.388.58.581.388.904.968 1.033 1.743h-7.294zm-8.779 5.161l.13-10.452h-5.81l-.065 1.29c-.71-.58-1.55-.967-2.517-1.225-.904-.258-1.937-.387-3.099-.387-1.162 0-2.13.129-3.034.451a8.04 8.04 0 0 0-2.323 1.29C1.42 17.162.904 17.808.58 18.646A6.097 6.097 0 0 0 0 21.29c0 .968.13 1.871.452 2.646A5.818 5.818 0 0 0 1.937 26a5.855 5.855 0 0 0 2.323 1.29c.904.323 1.937.452 3.034.452 1.098 0 2.066-.13 2.97-.387.903-.258 1.678-.645 2.452-1.162v.71c0 .58-.064 1.097-.258 1.42a1.766 1.766 0 0 1-.839.838c-.387.194-.904.258-1.485.258-.451 0-.774-.064-1.032-.193a1.025 1.025 0 0 1-.517-.645H.258c.194 1.032.646 1.87 1.356 2.516.71.645 1.678 1.161 2.905 1.484 1.226.322 2.775.451 4.583.451a24.8 24.8 0 0 0 4.066-.322c1.162-.258 2.195-.645 2.97-1.162.839-.516 1.484-1.225 2.065-2.064.194-.258.258-.58.387-.968.065-.387.13-.774.194-1.29v-1.613zM6.455 21.419c0-.516.13-.967.387-1.355.259-.387.646-.645 1.098-.903a4.319 4.319 0 0 1 1.678-.322 4.58 4.58 0 0 1 1.678.322c.452.194.84.516 1.098.903.258.388.387.84.387 1.355 0 .517-.13.968-.387 1.355-.259.387-.646.645-1.098.903A4.319 4.319 0 0 1 9.618 24a4.572 4.572 0 0 1-1.678-.323 2.521 2.521 0 0 1-1.098-.903c-.258-.387-.387-.838-.387-1.355z" fill="#262525"/></g><defs><clipPath id="clip0"><path fill="#fff" d="M0 0h183v40H0z"/></clipPath></defs></svg>