<svg width="683" height="440" viewBox="0 0 683 440" fill="none" xmlns="http://www.w3.org/2000/svg">
<g opacity="0.1">
<path d="M364.146 2.45318L372.365 2.45312L7.49334 437.198L1.28305e-05 437.198L364.146 2.45318Z" fill="#F2FFBF"/>
<path d="M411.511 2.45318L419.729 2.45312L54.8581 437.198L47.3648 437.198L411.511 2.45318Z" fill="#F2FFBF"/>
<path d="M458.875 2.45318L467.094 2.45312L102.223 437.198L94.7295 437.198L458.875 2.45318Z" fill="#F2FFBF"/>
<path d="M506.24 2.45318L514.459 2.45312L149.588 437.198L142.094 437.198L506.24 2.45318Z" fill="#F2FFBF"/>
<path d="M553.605 2.45318L561.824 2.45312L196.952 437.198L189.459 437.198L553.605 2.45318Z" fill="#F2FFBF"/>
<path d="M600.97 2.45318L609.188 2.45312L244.317 437.198L236.824 437.198L600.97 2.45318Z" fill="#F2FFBF"/>
<path d="M648.334 2.45318L656.553 2.45312L291.682 437.198L284.188 437.198L648.334 2.45318Z" fill="#F2FFBF"/>
<path d="M695.699 2.45318L703.918 2.45312L339.047 437.198L331.553 437.198L695.699 2.45318Z" fill="#F2FFBF"/>
<path d="M743.064 2.45318L751.283 2.45312L386.411 437.198L378.918 437.198L743.064 2.45318Z" fill="#F2FFBF"/>
<path d="M790.429 2.45318L798.647 2.45312L433.776 437.198L426.283 437.198L790.429 2.45318Z" fill="#F2FFBF"/>
</g>
</svg>
