<svg width="532" height="430" viewBox="0 0 532 430" fill="none" xmlns="http://www.w3.org/2000/svg">
<path d="M342.591 330.183C344.14 330.183 345.395 329.471 345.395 328.592C345.395 327.713 344.14 327 342.591 327C341.042 327 339.787 327.713 339.787 328.592C339.787 329.471 341.042 330.183 342.591 330.183Z" fill="black"/>
<path d="M354.414 337.004C355.963 337.004 357.218 336.292 357.218 335.413C357.218 334.534 355.963 333.821 354.414 333.821C352.865 333.821 351.61 334.534 351.61 335.413C351.61 336.292 352.865 337.004 354.414 337.004Z" fill="black"/>
<path d="M366.237 343.825C367.786 343.825 369.042 343.113 369.042 342.234C369.042 341.355 367.786 340.642 366.237 340.642C364.689 340.642 363.433 341.355 363.433 342.234C363.433 343.113 364.689 343.825 366.237 343.825Z" fill="black"/>
<path d="M365.069 331.183C366.618 331.183 367.873 330.471 367.873 329.592C367.873 328.713 366.618 328 365.069 328C363.52 328 362.265 328.713 362.265 329.592C362.265 330.471 363.52 331.183 365.069 331.183Z" fill="black"/>
<path d="M376.069 338.183C377.618 338.183 378.873 337.471 378.873 336.592C378.873 335.713 377.618 335 376.069 335C374.52 335 373.265 335.713 373.265 336.592C373.265 337.471 374.52 338.183 376.069 338.183Z" fill="black"/>
<path d="M378.06 350.647C379.609 350.647 380.865 349.934 380.865 349.055C380.865 348.176 379.609 347.463 378.06 347.463C376.512 347.463 375.256 348.176 375.256 349.055C375.256 349.934 376.512 350.647 378.06 350.647Z" fill="black"/>
<path d="M332.814 335.867C334.362 335.867 335.618 335.155 335.618 334.276C335.618 333.397 334.362 332.684 332.814 332.684C331.265 332.684 330.009 333.397 330.009 334.276C330.009 335.155 331.265 335.867 332.814 335.867Z" fill="black"/>
<path d="M344.561 342.689C346.11 342.689 347.365 341.976 347.365 341.097C347.365 340.218 346.11 339.505 344.561 339.505C343.012 339.505 341.757 340.218 341.757 341.097C341.757 341.976 343.012 342.689 344.561 342.689Z" fill="black"/>
<path d="M356.385 349.51C357.934 349.51 359.189 348.797 359.189 347.918C359.189 347.039 357.934 346.327 356.385 346.327C354.836 346.327 353.581 347.039 353.581 347.918C353.581 348.797 354.836 349.51 356.385 349.51Z" fill="black"/>
<path d="M368.208 356.331C369.757 356.331 371.012 355.618 371.012 354.739C371.012 353.86 369.757 353.147 368.208 353.147C366.659 353.147 365.404 353.86 365.404 354.739C365.404 355.618 366.659 356.331 368.208 356.331Z" fill="black"/>
<path d="M322.961 341.552C324.51 341.552 325.765 340.839 325.765 339.96C325.765 339.081 324.51 338.369 322.961 338.369C321.412 338.369 320.157 339.081 320.157 339.96C320.157 340.839 321.412 341.552 322.961 341.552Z" fill="black"/>
<path d="M334.785 348.373C336.333 348.373 337.589 347.66 337.589 346.781C337.589 345.902 336.333 345.189 334.785 345.189C333.236 345.189 331.98 345.902 331.98 346.781C331.98 347.66 333.236 348.373 334.785 348.373Z" fill="black"/>
<path d="M346.532 355.194C348.081 355.194 349.336 354.481 349.336 353.602C349.336 352.723 348.081 352.011 346.532 352.011C344.983 352.011 343.728 352.723 343.728 353.602C343.728 354.481 344.983 355.194 346.532 355.194Z" fill="black"/>
<path d="M358.355 362.015C359.904 362.015 361.159 361.303 361.159 360.424C361.159 359.545 359.904 358.832 358.355 358.832C356.806 358.832 355.551 359.545 355.551 360.424C355.551 361.303 356.806 362.015 358.355 362.015Z" fill="black"/>
<path d="M301.285 340.415C302.834 340.415 304.089 339.702 304.089 338.823C304.089 337.944 302.834 337.231 301.285 337.231C299.736 337.231 298.481 337.944 298.481 338.823C298.481 339.702 299.736 340.415 301.285 340.415Z" fill="black"/>
<path d="M313.108 347.236C314.657 347.236 315.912 346.523 315.912 345.644C315.912 344.765 314.657 344.053 313.108 344.053C311.559 344.053 310.304 344.765 310.304 345.644C310.304 346.523 311.559 347.236 313.108 347.236Z" fill="black"/>
<path d="M324.932 354.057C326.481 354.057 327.736 353.345 327.736 352.466C327.736 351.587 326.481 350.874 324.932 350.874C323.383 350.874 322.128 351.587 322.128 352.466C322.128 353.345 323.383 354.057 324.932 354.057Z" fill="black"/>
<path d="M336.755 360.878C338.304 360.878 339.559 360.165 339.559 359.286C339.559 358.407 338.304 357.695 336.755 357.695C335.206 357.695 333.951 358.407 333.951 359.286C333.951 360.165 335.206 360.878 336.755 360.878Z" fill="black"/>
<path d="M348.502 367.699C350.051 367.699 351.306 366.987 351.306 366.108C351.306 365.229 350.051 364.516 348.502 364.516C346.953 364.516 345.698 365.229 345.698 366.108C345.698 366.987 346.953 367.699 348.502 367.699Z" fill="black"/>
<path d="M279.609 339.278C281.157 339.278 282.413 338.565 282.413 337.686C282.413 336.807 281.157 336.095 279.609 336.095C278.06 336.095 276.804 336.807 276.804 337.686C276.804 338.565 278.06 339.278 279.609 339.278Z" fill="black"/>
<path d="M291.432 346.099C292.981 346.099 294.237 345.387 294.237 344.508C294.237 343.629 292.981 342.916 291.432 342.916C289.884 342.916 288.628 343.629 288.628 344.508C288.628 345.387 289.884 346.099 291.432 346.099Z" fill="black"/>
<path d="M303.255 352.92C304.804 352.92 306.06 352.208 306.06 351.329C306.06 350.45 304.804 349.737 303.255 349.737C301.707 349.737 300.451 350.45 300.451 351.329C300.451 352.208 301.707 352.92 303.255 352.92Z" fill="black"/>
<path d="M315.079 359.741C316.628 359.741 317.883 359.029 317.883 358.15C317.883 357.271 316.628 356.558 315.079 356.558C313.53 356.558 312.275 357.271 312.275 358.15C312.275 359.029 313.53 359.741 315.079 359.741Z" fill="black"/>
<path d="M326.902 366.563C328.451 366.563 329.706 365.85 329.706 364.971C329.706 364.092 328.451 363.379 326.902 363.379C325.353 363.379 324.098 364.092 324.098 364.971C324.098 365.85 325.353 366.563 326.902 366.563Z" fill="black"/>
<path d="M338.725 373.384C340.274 373.384 341.529 372.671 341.529 371.792C341.529 370.913 340.274 370.201 338.725 370.201C337.176 370.201 335.921 370.913 335.921 371.792C335.921 372.671 337.176 373.384 338.725 373.384Z" fill="black"/>
<path d="M350.473 380.205C352.021 380.205 353.277 379.492 353.277 378.613C353.277 377.734 352.021 377.021 350.473 377.021C348.924 377.021 347.668 377.734 347.668 378.613C347.668 379.492 348.924 380.205 350.473 380.205Z" fill="black"/>
<path d="M257.933 338.141C259.482 338.141 260.737 337.429 260.737 336.55C260.737 335.671 259.482 334.958 257.933 334.958C256.384 334.958 255.129 335.671 255.129 336.55C255.129 337.429 256.384 338.141 257.933 338.141Z" fill="black"/>
<path d="M269.756 344.962C271.305 344.962 272.56 344.25 272.56 343.371C272.56 342.492 271.305 341.779 269.756 341.779C268.207 341.779 266.952 342.492 266.952 343.371C266.952 344.25 268.207 344.962 269.756 344.962Z" fill="black"/>
<path d="M281.58 351.783C283.128 351.783 284.384 351.071 284.384 350.192C284.384 349.313 283.128 348.6 281.58 348.6C280.031 348.6 278.775 349.313 278.775 350.192C278.775 351.071 280.031 351.783 281.58 351.783Z" fill="black"/>
<path d="M293.403 358.605C294.951 358.605 296.207 357.892 296.207 357.013C296.207 356.134 294.951 355.421 293.403 355.421C291.854 355.421 290.598 356.134 290.598 357.013C290.598 357.892 291.854 358.605 293.403 358.605Z" fill="black"/>
<path d="M305.226 365.426C306.775 365.426 308.031 364.713 308.031 363.834C308.031 362.955 306.775 362.243 305.226 362.243C303.678 362.243 302.422 362.955 302.422 363.834C302.422 364.713 303.678 365.426 305.226 365.426Z" fill="black"/>
<path d="M317.049 372.247C318.598 372.247 319.854 371.534 319.854 370.655C319.854 369.776 318.598 369.063 317.049 369.063C315.501 369.063 314.245 369.776 314.245 370.655C314.245 371.534 315.501 372.247 317.049 372.247Z" fill="black"/>
<path d="M328.872 379.068C330.421 379.068 331.677 378.355 331.677 377.476C331.677 376.597 330.421 375.885 328.872 375.885C327.324 375.885 326.068 376.597 326.068 377.476C326.068 378.355 327.324 379.068 328.872 379.068Z" fill="black"/>
<path d="M340.696 385.889C342.245 385.889 343.5 385.177 343.5 384.298C343.5 383.419 342.245 382.706 340.696 382.706C339.147 382.706 337.892 383.419 337.892 384.298C337.892 385.177 339.147 385.889 340.696 385.889Z" fill="black"/>
<path d="M352.444 392.71C353.992 392.71 355.248 391.997 355.248 391.118C355.248 390.239 353.992 389.527 352.444 389.527C350.895 389.527 349.639 390.239 349.639 391.118C349.639 391.997 350.895 392.71 352.444 392.71Z" fill="black"/>
<path d="M248.08 343.825C249.629 343.825 250.884 343.113 250.884 342.234C250.884 341.355 249.629 340.642 248.08 340.642C246.531 340.642 245.276 341.355 245.276 342.234C245.276 343.113 246.531 343.825 248.08 343.825Z" fill="black"/>
<path d="M259.903 350.647C261.452 350.647 262.707 349.934 262.707 349.055C262.707 348.176 261.452 347.463 259.903 347.463C258.354 347.463 257.099 348.176 257.099 349.055C257.099 349.934 258.354 350.647 259.903 350.647Z" fill="black"/>
<path d="M271.727 357.468C273.276 357.468 274.531 356.755 274.531 355.876C274.531 354.997 273.276 354.285 271.727 354.285C270.178 354.285 268.923 354.997 268.923 355.876C268.923 356.755 270.178 357.468 271.727 357.468Z" fill="black"/>
<path d="M283.55 364.289C285.099 364.289 286.354 363.576 286.354 362.697C286.354 361.818 285.099 361.105 283.55 361.105C282.001 361.105 280.746 361.818 280.746 362.697C280.746 363.576 282.001 364.289 283.55 364.289Z" fill="black"/>
<path d="M295.374 371.11C296.922 371.11 298.178 370.397 298.178 369.518C298.178 368.639 296.922 367.927 295.374 367.927C293.825 367.927 292.569 368.639 292.569 369.518C292.569 370.397 293.825 371.11 295.374 371.11Z" fill="black"/>
<path d="M307.197 377.931C308.745 377.931 310.001 377.219 310.001 376.34C310.001 375.461 308.745 374.748 307.197 374.748C305.648 374.748 304.392 375.461 304.392 376.34C304.392 377.219 305.648 377.931 307.197 377.931Z" fill="black"/>
<path d="M319.02 384.752C320.568 384.752 321.824 384.039 321.824 383.16C321.824 382.281 320.568 381.569 319.02 381.569C317.471 381.569 316.215 382.281 316.215 383.16C316.215 384.039 317.471 384.752 319.02 384.752Z" fill="black"/>
<path d="M330.843 391.573C332.392 391.573 333.648 390.861 333.648 389.982C333.648 389.103 332.392 388.39 330.843 388.39C329.295 388.39 328.039 389.103 328.039 389.982C328.039 390.861 329.295 391.573 330.843 391.573Z" fill="black"/>
<path d="M342.666 398.395C344.215 398.395 345.471 397.682 345.471 396.803C345.471 395.924 344.215 395.211 342.666 395.211C341.118 395.211 339.862 395.924 339.862 396.803C339.862 397.682 341.118 398.395 342.666 398.395Z" fill="black"/>
<path d="M238.303 349.51C239.852 349.51 241.107 348.797 241.107 347.918C241.107 347.039 239.852 346.327 238.303 346.327C236.754 346.327 235.499 347.039 235.499 347.918C235.499 348.797 236.754 349.51 238.303 349.51Z" fill="black"/>
<path d="M250.05 356.331C251.599 356.331 252.855 355.618 252.855 354.739C252.855 353.86 251.599 353.147 250.05 353.147C248.502 353.147 247.246 353.86 247.246 354.739C247.246 355.618 248.502 356.331 250.05 356.331Z" fill="black"/>
<path d="M261.874 363.152C263.423 363.152 264.678 362.439 264.678 361.56C264.678 360.681 263.423 359.969 261.874 359.969C260.325 359.969 259.07 360.681 259.07 361.56C259.07 362.439 260.325 363.152 261.874 363.152Z" fill="black"/>
<path d="M273.697 369.973C275.246 369.973 276.501 369.261 276.501 368.382C276.501 367.503 275.246 366.79 273.697 366.79C272.148 366.79 270.893 367.503 270.893 368.382C270.893 369.261 272.148 369.973 273.697 369.973Z" fill="black"/>
<path d="M285.521 376.794C287.07 376.794 288.325 376.081 288.325 375.202C288.325 374.323 287.07 373.611 285.521 373.611C283.972 373.611 282.717 374.323 282.717 375.202C282.717 376.081 283.972 376.794 285.521 376.794Z" fill="black"/>
<path d="M297.344 383.615C298.893 383.615 300.148 382.903 300.148 382.024C300.148 381.145 298.893 380.432 297.344 380.432C295.795 380.432 294.54 381.145 294.54 382.024C294.54 382.903 295.795 383.615 297.344 383.615Z" fill="black"/>
<path d="M309.167 390.437C310.716 390.437 311.971 389.724 311.971 388.845C311.971 387.966 310.716 387.253 309.167 387.253C307.618 387.253 306.363 387.966 306.363 388.845C306.363 389.724 307.618 390.437 309.167 390.437Z" fill="black"/>
<path d="M320.991 397.257C322.539 397.257 323.795 396.545 323.795 395.666C323.795 394.787 322.539 394.074 320.991 394.074C319.442 394.074 318.186 394.787 318.186 395.666C318.186 396.545 319.442 397.257 320.991 397.257Z" fill="black"/>
<path d="M332.814 404.079C334.362 404.079 335.618 403.366 335.618 402.487C335.618 401.608 334.362 400.896 332.814 400.896C331.265 400.896 330.009 401.608 330.009 402.487C330.009 403.366 331.265 404.079 332.814 404.079Z" fill="black"/>
<path d="M240.274 362.015C241.823 362.015 243.078 361.303 243.078 360.424C243.078 359.545 241.823 358.832 240.274 358.832C238.725 358.832 237.47 359.545 237.47 360.424C237.47 361.303 238.725 362.015 240.274 362.015Z" fill="black"/>
<path d="M252.021 368.836C253.57 368.836 254.826 368.123 254.826 367.244C254.826 366.365 253.57 365.653 252.021 365.653C250.473 365.653 249.217 366.365 249.217 367.244C249.217 368.123 250.473 368.836 252.021 368.836Z" fill="black"/>
<path d="M263.844 375.657C265.393 375.657 266.649 374.945 266.649 374.066C266.649 373.187 265.393 372.474 263.844 372.474C262.296 372.474 261.04 373.187 261.04 374.066C261.04 374.945 262.296 375.657 263.844 375.657Z" fill="black"/>
<path d="M275.668 382.479C277.217 382.479 278.472 381.766 278.472 380.887C278.472 380.008 277.217 379.295 275.668 379.295C274.119 379.295 272.864 380.008 272.864 380.887C272.864 381.766 274.119 382.479 275.668 382.479Z" fill="black"/>
<path d="M287.491 389.299C289.04 389.299 290.295 388.587 290.295 387.708C290.295 386.829 289.04 386.116 287.491 386.116C285.942 386.116 284.687 386.829 284.687 387.708C284.687 388.587 285.942 389.299 287.491 389.299Z" fill="black"/>
<path d="M299.314 396.121C300.863 396.121 302.118 395.408 302.118 394.529C302.118 393.65 300.863 392.938 299.314 392.938C297.765 392.938 296.51 393.65 296.51 394.529C296.51 395.408 297.765 396.121 299.314 396.121Z" fill="black"/>
<path d="M311.138 402.942C312.687 402.942 313.942 402.229 313.942 401.35C313.942 400.471 312.687 399.759 311.138 399.759C309.589 399.759 308.334 400.471 308.334 401.35C308.334 402.229 309.589 402.942 311.138 402.942Z" fill="black"/>
<path d="M242.169 374.521C243.717 374.521 244.973 373.808 244.973 372.929C244.973 372.05 243.717 371.337 242.169 371.337C240.62 371.337 239.365 372.05 239.365 372.929C239.365 373.808 240.62 374.521 242.169 374.521Z" fill="black"/>
<path d="M253.992 381.341C255.54 381.341 256.796 380.629 256.796 379.75C256.796 378.871 255.54 378.158 253.992 378.158C252.443 378.158 251.188 378.871 251.188 379.75C251.188 380.629 252.443 381.341 253.992 381.341Z" fill="black"/>
<path d="M265.815 388.163C267.364 388.163 268.62 387.45 268.62 386.571C268.62 385.692 267.364 384.979 265.815 384.979C264.267 384.979 263.011 385.692 263.011 386.571C263.011 387.45 264.267 388.163 265.815 388.163Z" fill="black"/>
<path d="M277.638 394.984C279.187 394.984 280.443 394.271 280.443 393.392C280.443 392.513 279.187 391.801 277.638 391.801C276.09 391.801 274.834 392.513 274.834 393.392C274.834 394.271 276.09 394.984 277.638 394.984Z" fill="black"/>
<path d="M289.461 401.805C291.01 401.805 292.266 401.092 292.266 400.213C292.266 399.334 291.01 398.622 289.461 398.622C287.913 398.622 286.657 399.334 286.657 400.213C286.657 401.092 287.913 401.805 289.461 401.805Z" fill="black"/>
<path d="M244.139 387.026C245.688 387.026 246.943 386.313 246.943 385.434C246.943 384.555 245.688 383.843 244.139 383.843C242.59 383.843 241.335 384.555 241.335 385.434C241.335 386.313 242.59 387.026 244.139 387.026Z" fill="black"/>
<path d="M255.963 393.847C257.511 393.847 258.767 393.135 258.767 392.256C258.767 391.377 257.511 390.664 255.963 390.664C254.414 390.664 253.158 391.377 253.158 392.256C253.158 393.135 254.414 393.847 255.963 393.847Z" fill="black"/>
<path d="M267.786 400.668C269.334 400.668 270.59 399.955 270.59 399.076C270.59 398.197 269.334 397.485 267.786 397.485C266.237 397.485 264.981 398.197 264.981 399.076C264.981 399.955 266.237 400.668 267.786 400.668Z" fill="black"/>
<path d="M279.609 407.489C281.157 407.489 282.413 406.777 282.413 405.898C282.413 405.019 281.157 404.306 279.609 404.306C278.06 404.306 276.804 405.019 276.804 405.898C276.804 406.777 278.06 407.489 279.609 407.489Z" fill="black"/>
<path d="M234.362 392.71C235.911 392.71 237.167 391.997 237.167 391.118C237.167 390.239 235.911 389.527 234.362 389.527C232.814 389.527 231.558 390.239 231.558 391.118C231.558 391.997 232.814 392.71 234.362 392.71Z" fill="black"/>
<path d="M246.11 399.531C247.659 399.531 248.914 398.819 248.914 397.94C248.914 397.061 247.659 396.348 246.11 396.348C244.561 396.348 243.306 397.061 243.306 397.94C243.306 398.819 244.561 399.531 246.11 399.531Z" fill="black"/>
<path d="M257.933 406.353C259.482 406.353 260.737 405.64 260.737 404.761C260.737 403.882 259.482 403.169 257.933 403.169C256.384 403.169 255.129 403.882 255.129 404.761C255.129 405.64 256.384 406.353 257.933 406.353Z" fill="black"/>
<path d="M224.51 398.395C226.058 398.395 227.314 397.682 227.314 396.803C227.314 395.924 226.058 395.211 224.51 395.211C222.961 395.211 221.705 395.924 221.705 396.803C221.705 397.682 222.961 398.395 224.51 398.395Z" fill="black"/>
<path d="M236.333 405.215C237.881 405.215 239.137 404.503 239.137 403.624C239.137 402.745 237.881 402.032 236.333 402.032C234.784 402.032 233.528 402.745 233.528 403.624C233.528 404.503 234.784 405.215 236.333 405.215Z" fill="black"/>
<path d="M248.08 412.037C249.629 412.037 250.884 411.324 250.884 410.445C250.884 409.566 249.629 408.854 248.08 408.854C246.531 408.854 245.276 409.566 245.276 410.445C245.276 411.324 246.531 412.037 248.08 412.037Z" fill="black"/>
<path d="M214.657 404.079C216.206 404.079 217.461 403.366 217.461 402.487C217.461 401.608 216.206 400.896 214.657 400.896C213.108 400.896 211.853 401.608 211.853 402.487C211.853 403.366 213.108 404.079 214.657 404.079Z" fill="black"/>
<path d="M226.48 410.9C228.029 410.9 229.284 410.187 229.284 409.308C229.284 408.429 228.029 407.717 226.48 407.717C224.931 407.717 223.676 408.429 223.676 409.308C223.676 410.187 224.931 410.9 226.48 410.9Z" fill="black"/>
<path d="M238.303 417.721C239.852 417.721 241.107 417.008 241.107 416.129C241.107 415.25 239.852 414.538 238.303 414.538C236.754 414.538 235.499 415.25 235.499 416.129C235.499 417.008 236.754 417.721 238.303 417.721Z" fill="black"/>
<path d="M204.804 409.763C206.353 409.763 207.608 409.05 207.608 408.171C207.608 407.292 206.353 406.58 204.804 406.58C203.255 406.58 202 407.292 202 408.171C202 409.05 203.255 409.763 204.804 409.763Z" fill="black"/>
<path d="M216.627 416.584C218.176 416.584 219.431 415.871 219.431 414.992C219.431 414.113 218.176 413.401 216.627 413.401C215.078 413.401 213.823 414.113 213.823 414.992C213.823 415.871 215.078 416.584 216.627 416.584Z" fill="black"/>
<path d="M228.45 423.405C229.999 423.405 231.254 422.693 231.254 421.814C231.254 420.935 229.999 420.222 228.45 420.222C226.902 420.222 225.646 420.935 225.646 421.814C225.646 422.693 226.902 423.405 228.45 423.405Z" fill="black"/>
<path d="M206.774 422.268C208.323 422.268 209.579 421.556 209.579 420.677C209.579 419.798 208.323 419.085 206.774 419.085C205.226 419.085 203.97 419.798 203.97 420.677C203.97 421.556 205.226 422.268 206.774 422.268Z" fill="black"/>
<path d="M218.597 429.089C220.146 429.089 221.402 428.377 221.402 427.498C221.402 426.619 220.146 425.906 218.597 425.906C217.049 425.906 215.793 426.619 215.793 427.498C215.793 428.377 217.049 429.089 218.597 429.089Z" fill="black"/>
<path d="M64.7594 326.873H52.4551V321.376C52.4551 309.411 60.55 295.507 70.9116 289.364L79.9779 284.19C86.1301 280.633 92.2822 280.31 97.1392 283.22C101.996 286.13 104.91 291.627 104.91 298.417C104.91 301.004 105.558 302.621 106.206 302.944C106.853 303.268 108.472 303.268 110.739 301.974L120.776 296.154C127.252 292.274 133.081 282.573 133.081 274.813C133.081 262.849 141.176 248.944 151.537 242.801L160.28 237.95C166.432 234.393 172.584 234.07 177.441 236.98C182.298 239.89 185.212 245.387 185.212 252.178C185.212 254.765 185.86 256.381 186.507 256.705C187.155 257.028 188.774 257.028 191.041 255.735L198.164 251.531C204.64 247.651 210.469 237.95 210.469 230.19C210.469 218.226 218.563 204.322 228.925 198.178L237.668 193.328C243.82 189.771 249.972 189.447 254.829 192.357C259.686 195.268 262.6 200.765 262.6 207.555V214.345H249.324V207.555C249.324 204.968 248.677 203.351 248.029 203.028C247.382 202.705 245.763 202.705 243.496 203.998L234.753 208.848C228.277 212.729 222.449 222.429 222.449 230.19C222.449 242.154 214.354 256.058 203.993 262.202L196.869 266.405C190.717 269.962 184.565 270.286 179.708 267.376C174.851 264.465 171.937 258.968 171.937 252.178C171.937 249.591 171.289 247.974 170.641 247.651C169.994 247.328 168.375 247.328 166.108 248.621L157.366 253.471C150.89 257.352 145.061 267.052 145.061 274.813C145.061 286.777 136.966 300.681 126.605 306.825L116.567 312.645C110.415 316.202 104.263 316.525 99.4058 313.615C94.5488 310.705 91.6346 305.208 91.6346 298.417C91.6346 295.831 90.987 294.214 90.3395 293.891C89.6919 293.567 88.0729 293.567 85.8063 294.861L76.7399 300.358C70.264 304.238 64.4356 313.938 64.4356 321.699V326.873H64.7594Z" fill="#F2FFBF"/>
<path d="M247.059 182.982L264.22 291.952L530.382 39.7358L247.059 182.982Z" fill="#8EBA5B"/>
<path d="M262.924 295.186L245.439 182.335L246.41 181.689L529.734 38.1196L532 40.7065L265.191 293.246L262.924 295.186ZM249.001 183.952L265.191 288.395L520.667 46.5268L249.001 183.952Z" fill="#16110D"/>
<path d="M298.219 214.67L262.277 291.629L262.925 295.185L341.932 236.982L298.219 214.67Z" fill="#16110D"/>
<path d="M530.38 39.7358L160.603 130.275L247.057 182.982L530.38 39.7358Z" fill="#8EBA5B"/>
<path d="M530.381 39.7358L407.985 279.018L301.132 214.347L530.381 39.7358Z" fill="#8EBA5B"/>
<path d="M530.383 56.8724L410.902 290.334L304.048 225.663L528.117 54.9323C529.412 53.9622 531.031 55.2556 530.383 56.8724Z" fill="#F2FFBF"/>
<path d="M245.116 182.011L249.002 183.951L249.973 191.065L498.974 64.9572L526.821 41.6758L491.203 59.4602L157.043 141.269L243.497 194.299L246.735 192.682L245.116 182.011Z" fill="#F2FFBF"/>
<path d="M531.675 40.7065L529.409 38.1196L245.761 107.641L160.279 128.659L156.393 129.629L247.057 185.246L351.643 132.216L510.952 51.3771L514.514 49.437L436.155 108.934L300.159 213.054L298.217 214.671L408.632 281.605L426.764 246.359L531.675 40.7065ZM247.057 181.042L165.136 130.922L253.209 109.257L346.786 130.599L247.057 181.042ZM351.32 128.335L260.332 107.317L452.345 60.431L516.133 44.9101L351.32 128.335ZM407.013 276.431L304.045 214.347L375.604 159.701L424.498 242.479L407.013 276.431ZM426.441 238.922L378.519 157.76L470.477 87.5927L525.523 45.5568L426.441 238.922Z" fill="#16110D"/>
<path d="M373.663 201.088L354.883 223.076L384.024 251.208L402.481 228.897L373.663 201.088ZM383.701 240.214L363.949 221.46L374.31 209.172L394.062 227.603L383.701 240.214Z" fill="#8EBA5B"/>
<path d="M383.701 240.215L361.035 218.874L373.663 204L396.005 225.341L383.701 240.215ZM363.301 218.55L383.377 237.628L393.415 225.341L373.339 206.263L363.301 218.55Z" fill="#16110D"/>
<path d="M384.024 248.946L352.94 219.198L373.339 195.27L404.424 224.695L384.024 248.946ZM356.501 218.874L384.024 245.066L400.862 224.695L373.663 198.826L356.501 218.874Z" fill="#16110D"/>
<path d="M400.863 179.423C400.863 195.915 385.968 209.495 368.159 209.495C352.617 209.495 339.665 199.795 336.103 186.537L334.484 187.831C338.37 201.412 351.969 211.436 368.159 211.436C387.263 211.436 402.806 197.208 402.806 179.423C402.806 166.813 394.711 155.819 383.054 150.645L381.435 151.938C392.768 156.789 400.863 167.459 400.863 179.423Z" fill="#16110D"/>
<path d="M394.062 179.423C394.062 192.357 382.729 202.705 368.482 202.705C355.206 202.705 344.197 193.327 342.902 181.363L340.959 182.657C342.902 194.944 354.235 204.645 368.158 204.645C383.377 204.645 395.681 193.327 395.681 179.423C395.681 168.429 387.91 158.729 376.901 155.495L374.958 157.112C386.291 159.699 394.062 168.753 394.062 179.423Z" fill="#16110D"/>
<path d="M76.7426 330.754H64.4383V325.257C64.4383 313.293 72.5332 299.389 82.8948 293.245L91.9611 288.071C98.1133 284.514 104.265 284.191 109.122 287.101C113.979 290.011 116.894 295.508 116.894 302.299C116.894 304.886 117.541 306.502 118.189 306.826C118.836 307.149 120.455 307.149 122.722 305.856L132.76 300.035C139.236 296.155 145.064 286.454 145.064 278.694C145.064 266.73 153.159 252.826 163.521 246.682L172.263 241.832C178.415 238.275 184.567 237.951 189.424 240.862C194.281 243.772 197.196 249.269 197.196 256.059C197.196 258.646 197.843 260.263 198.491 260.586C199.138 260.91 200.757 260.91 203.024 259.616L210.147 255.413C216.623 251.532 222.452 241.832 222.452 234.071C222.452 222.107 230.547 208.203 240.908 202.059L249.651 197.209C255.803 193.652 261.955 193.329 266.812 196.239C271.669 199.149 274.583 204.646 274.583 211.436V218.227H262.279V211.436C262.279 208.85 261.631 207.233 260.984 206.909C260.336 206.586 258.717 206.586 256.451 207.88L247.06 213.053C240.584 216.933 234.756 226.634 234.756 234.395C234.756 246.359 226.661 260.263 216.3 266.407L209.176 270.61C203.024 274.167 196.872 274.49 192.015 271.58C187.158 268.67 184.244 263.173 184.244 256.383C184.244 253.796 183.596 252.179 182.948 251.856C182.301 251.532 180.682 251.532 178.415 252.826L169.673 257.676C163.197 261.556 157.368 271.257 157.368 279.017C157.368 290.981 149.273 304.886 138.912 311.029L128.874 316.526C122.722 320.083 116.57 320.407 111.713 317.496C106.856 314.586 103.942 309.089 103.942 302.299C103.942 299.712 103.294 298.095 102.646 297.772C101.999 297.449 100.38 297.449 98.1133 298.742L89.0469 303.916C82.571 307.796 76.7426 317.496 76.7426 325.257V330.754Z" fill="#16110D"/>
<path d="M9.39015 420H0V417.413C0 410.946 4.20938 403.832 9.71394 400.599L13.9233 398.012C17.4851 396.072 21.0469 395.748 23.6373 397.365C26.5514 398.982 28.1704 402.215 28.1704 406.096V406.419H28.4942L33.3512 403.832C35.9416 402.215 38.2082 398.335 38.2082 395.102C38.2082 388.635 42.4176 381.521 47.9221 378.287L52.1315 376.024C55.6933 374.084 59.2551 373.76 61.8454 375.377C64.7596 376.994 66.3786 380.227 66.3786 384.108V384.431H66.7024L70.2642 382.491C72.8546 380.874 75.1212 376.994 75.1212 373.76C75.1212 367.293 79.3305 360.179 84.8351 356.946L89.0445 354.682C92.6063 352.742 96.168 352.419 98.7584 354.036C101.673 355.652 103.292 358.886 103.292 362.766V366H93.9015V362.766V362.443H93.5777L89.3683 364.706C86.7779 366.323 84.5113 370.203 84.5113 373.437C84.5113 379.904 80.3019 387.018 74.7974 390.251L71.2356 392.191C67.6738 394.132 64.112 394.455 61.5216 392.838C58.6075 391.221 56.9885 387.988 56.9885 384.108V383.784H56.6647L52.4553 386.048C49.8649 387.664 47.5983 391.545 47.5983 394.778C47.5983 401.245 43.3889 408.359 37.8844 411.593L33.0274 414.179C29.4656 416.12 25.9038 416.443 23.3135 414.826C20.3993 413.209 18.7803 409.976 18.7803 406.096V405.772H18.4565L14.2471 408.359C11.6567 409.976 9.39015 413.856 9.39015 417.09V420Z" fill="#F2FFBF"/>
<path d="M337.073 54.2864H330.273V52.3462C330.273 47.1726 333.511 41.3522 338.044 38.7654L341.606 36.8253C344.197 35.2085 347.111 35.2085 349.377 36.5019C351.644 37.7953 352.939 40.3822 352.939 43.2924C352.939 43.9391 352.939 43.9391 352.939 44.2624C352.939 44.2624 353.263 43.9391 353.587 43.9391L357.472 41.6756C359.739 40.3822 361.682 36.8253 361.682 34.2384C361.682 29.0648 364.92 23.2444 369.453 20.6576L372.691 18.7175C375.281 17.1007 378.195 17.1007 380.462 18.3941C382.729 19.6875 384.024 22.2744 384.024 25.1845C384.024 25.8312 384.024 25.8312 384.024 26.1546C384.024 26.1546 384.348 25.8313 384.671 25.8313L387.586 24.2145C389.852 22.9211 391.795 19.3642 391.795 16.7773C391.795 11.6037 395.033 5.78332 399.566 3.19649L402.804 1.25637C405.394 -0.360398 408.309 -0.360398 410.575 0.933017C412.842 2.22643 414.137 4.81326 414.137 7.72344V10.3103H407.337V7.40009C407.337 6.75338 407.337 6.75338 407.337 6.43003C407.337 6.43003 407.013 6.75338 406.69 6.75338L403.452 8.69351C401.185 9.98692 399.242 13.5438 399.242 16.1306C399.242 21.3043 396.004 27.1247 391.471 29.7115L388.557 31.3283C385.967 32.945 383.052 32.945 380.786 31.6516C378.519 30.3582 377.224 27.7714 377.224 24.8612C377.224 24.2145 377.224 24.2145 377.224 23.8911C377.224 23.8911 376.9 24.2145 376.576 24.2145L373.338 26.1546C371.072 27.448 369.129 31.0049 369.129 33.5917C369.129 38.7654 365.891 44.5858 361.358 46.8492L357.472 49.1127C354.882 50.7295 351.968 50.7295 349.701 49.4361C347.435 48.1427 346.139 45.5558 346.139 42.6456C346.139 41.9989 346.139 41.9989 346.139 41.6756C346.139 41.6756 345.816 41.9989 345.492 41.9989L341.93 43.9391C339.663 45.2325 337.721 48.7894 337.721 51.3762V54.2864H337.073Z" fill="#F2FFBF"/>
</svg>
